<svg xmlns="http://www.w3.org/2000/svg" viewBox="0 0 242.27 127.66"><defs><style>.cls-1{fill:#f2f2f2;}</style></defs><g id="Capa_2" data-name="Capa 2"><g id="Capa_1-2" data-name="Capa 1"><path class="cls-1" d="M122.7,78.18v.74c-.2.65-.53,1.43-1.16,1.47-5.68.39-9.36,4-12.88,7.84-.85-.1-1.5-.36-1-1.42a8.84,8.84,0,0,1,.73-1.79c1.86-2.7,1.87-4.42-2.67-4.33,6.71.36,7.27-5.11,9.61-8.73,1.17-1.82-.36-1.76-1.48-1.92-1.06.42-1.28-.19-1.3-1,4.92-2.21,7-6.81,9.36-11.17,1.64-3,3.74-5.82,5.45-9.86C105.94,53.69,85,58.17,66.05,68.67a39,39,0,0,1,6.86.57c5.8.76,11.61.08,17.4.39,2,.11,4.48-.7,5.37,2.19a252.7,252.7,0,0,1-32.91-.18c-7.94-.49-15,2.47-22.44,3.79-2.78.49-5.53,1.13-8.32,1.49-1.83.24-4,0-4.43-2.12s1.78-2.38,3.33-2.87l5.15-1.58c-10.36-1.22-19-3.69-27.74-5.64C.79,63-1.47,59.67.9,54.07c1.61-.24,2.14,1.15,3,2a12,12,0,0,0,6.19,4C22.78,63.61,35.46,67,48.82,66c3.94,1.41,7.25-.18,10.44-2.27,5.71-2.31,11.32-4.88,17.26-6.57,16.68-4.76,31.2-13.85,47.08-23-26.77.56-52.08,2.88-77.14,7.77-3.07.6-6.11,1.8-9.35,1-.79-.34-1.44-.77-1.34-1.78C55,36.14,74.55,33.67,94.26,32c12.24-1,24.49-1.91,36.74-2.79A9,9,0,0,0,135.69,28a17.17,17.17,0,0,0,1.9-.15c1.61-.11,3-.56,3.61-2.25a8.25,8.25,0,0,1,.6-2.33C150,18.2,155.06,9.8,162.33,3.76c2-1.65,4.38-5.56,6.79-2.8,2.26,2.58-2,4.23-3.8,5.74-7.31,6.1-13.07,13.64-20.25,20.81,3.65.21,6.61.38,9.58.53,1.08.05,2,.28,2,1.62s-.94,1.72-2,1.47c-2.1-.5-3.9,1.1-5.85.8-7.22-1.1-10.27,3.56-13.28,9.86,8.05-2.14,15.56-3.82,22.86-6.17a34.9,34.9,0,0,1,15.72-1.26c3.62.5,8.08,1.37,8.5,5.46a11.92,11.92,0,0,1-5,11.25c-2.17,1.49-4.56,2.65-6.86,4-1.08.39-1.28-.27-1.33-1.11.75-2,2.6-3,4.22-4.09,2.85-2,4.71-4.69,3.49-8-1.17-3.2-4.62-3-7.36-2.88-5.3.24-10.58.57-15.74,2.26a121.88,121.88,0,0,1-14.52,3.65,11.2,11.2,0,0,0-8.35,6.33c-2.85,5.45-6.12,10.67-9.36,15.9a22.29,22.29,0,0,0-2.11,3.63c-1,2.23-2.57,4.19-3.76,6.54C118.11,78.61,120.83,75.73,122.7,78.18Z"/><path class="cls-1" d="M35.77,41.13l1.12,1c-.36,2.26-2.35,2.16-3.85,2.41A79.22,79.22,0,0,0,2.57,56l-1.67-2c2.66-3.13,6.35-4.73,10-6.17A100.49,100.49,0,0,1,35.77,41.13Z"/><path class="cls-1" d="M95.68,71.82c-5.68-1.71-11.5-.28-17.23-.8-2.26-.2-4.67.7-6.75-.89,1.79-2,4.24-1.65,6.53-1.72,10-.32,20,.57,30-.67,1.66-.2,3.36-.1,4.54,1.43l1.1.87A91.3,91.3,0,0,1,95.68,71.82Z"/><path class="cls-1" d="M107.63,86.81l.89,1.12a2.31,2.31,0,0,1,0,2.79c-3.82,6.6-7,13.55-10.67,20.2a2.43,2.43,0,0,1-2,1.31l-1-1.23C98.2,102.43,102.86,94.59,107.63,86.81Z"/><path class="cls-1" d="M141,73.92c3,3.64,7.34,1,10.86,2.18l-20.24,1.74a3,3,0,0,1,1.76-2.92C136,75,138.45,73.86,141,73.92Z"/><path class="cls-1" d="M169.7,54.08l1,1a17.84,17.84,0,0,1-7.12,3.78c-.41-.94-1.51-1.86-.06-2.84C165.67,55.54,167.09,52.89,169.7,54.08Z"/><path class="cls-1" d="M136.8,29,135.69,28c1.55-2.21,3.88-3.4,6.11-4.73.28.61.57,1.22.85,1.82C141.13,27,138.92,27.91,136.8,29Z"/><path class="cls-1" d="M133.51,68.31,118.71,70l1.65-3c2.5,2.5,5.4.42,8.1.65a29.53,29.53,0,0,0,5.26-.5Z"/><path class="cls-1" d="M237.94,72.72c-7.36-1.81-14.83-1.62-22.31-1.57-8.14.06-16.27,0-24.4,0,4-2.57,7.56-5.44,12-6.36,1.26-.26,2.89-.58,2.65-2.35-.27-2-2-2-3.5-1.86-2.65.17-5.29.54-7.93.83-11.37,1.24-22.3,4.66-34.06,7,.66-3.68-.21-7.28,3.22-9.66a14.64,14.64,0,0,1,1.46-3.43,9.73,9.73,0,0,0,1.16-3.25,3,3,0,0,0-1.89-3.63c-1.81-.71-3.26.15-4.34,1.53-2.55,3.25-4.68,6.88-7.91,9.5-2,1.63-4.13,3-5.48-1.15-1.6-4.94-4.18-5.31-7.84-1.68-2.67,2.65-3.59,6.29-5.47,9.38-.24.4-.49.8-.7,1.22-2.6,4.17-5.11,8.41-10,10.4a1.73,1.73,0,0,0-.18,1.24c1.5,1.41-.14,2-.78,2.69a187.11,187.11,0,0,0-26.61,36c.64-1.71,1.59-3.42,1.35-5.46-.23-.72-.56-1.31-1.47-1.2-1.09,2.58-2.5,5.09-3.2,7.78s-3.25,6.83.25,8.48c3.76,1.79,5-2.84,6.36-5.32,8.93-16.36,19.14-31.72,33.32-44.1a25.24,25.24,0,0,0,3-2.67c1.64-1.5,2.45-3.75,4.49-5.43.6,2.08.36,4,1.72,5.38,3.5,2.29,7.3,1.27,11,1,1.87.26,3.87-.48,5.4,1.61,4.34,6,11,7.23,17.4,6.11,5.77-1,11.05.23,16.57.67,16.18,1.29,32.16.37,47.52-5.53,1.45-.56,3.67-.94,3.47-3C242,73.73,240,73.22,237.94,72.72Zm-44.22,8.11c-2.83.44-5.38-.76-8-1.66h10c4.81,0,9.62,0,14.44-.07,1.07,0,2.59.29,2.51-1.51-.07-1.58-1.38-1.66-2.58-1.59-4.13.24-8.08-.75-12-1.77,13.37-.16,26.76-1.09,40,1.87C231.75,81.14,214.76,82.93,193.72,80.83Z"/><path class="cls-1" d="M49.71,66.88c2.82-1.57,5.75-2.56,9-1.76C55.91,66.65,53.37,69.63,49.71,66.88Z"/></g></g></svg>